<svg width="512" height="380" viewBox="0 0 512 380" fill="none" xmlns="http://www.w3.org/2000/svg">
<path fill-rule="evenodd" clip-rule="evenodd" d="M251.038 1.22067C246.158 3.92467 246.001 5.10967 245.963 39.6247C245.935 65.6767 246.204 72.4567 247.353 74.6797C250.795 81.3347 261.061 81.3347 264.503 74.6797C266.403 71.0047 266.608 9.41067 264.733 5.29667C262.544 0.490667 255.914 -1.48233 251.038 1.22067ZM132.316 32.8047C129.223 34.0547 125.928 38.6917 125.928 41.7947C125.928 44.1427 135.227 61.1607 154.663 94.3837C159.906 103.346 164.09 105.531 170.456 102.63C173.394 101.292 175.928 97.1107 175.928 93.6037C175.928 90.5047 145.693 38.0737 141.887 34.5747C138.846 31.7777 136.11 31.2717 132.316 32.8047ZM370.09 34.4657C366.201 38.0387 335.928 90.4437 335.928 93.6037C335.928 97.1107 338.462 101.292 341.4 102.63C347.766 105.531 351.95 103.346 357.193 94.3837C377.113 60.3327 385.928 44.1637 385.928 41.6757C385.928 37.7037 381.313 32.8957 376.815 32.1817C373.79 31.7007 372.697 32.0717 370.09 34.4657ZM231.928 120.976C159.046 127.723 77.985 168.723 14.749 230.825C-3.335 248.585 -3.69599 250.196 7.737 262.119C53.034 309.357 119.818 350.943 177.443 367.793C207.404 376.555 225.784 379.234 255.928 379.234C280.125 379.234 292.411 377.951 313.928 373.177C376.888 359.208 443.629 321.195 497.002 268.904C511.127 255.065 512.82 252.517 511.469 247.134C510.629 243.784 498.213 230.921 482.343 216.958C403.165 147.294 314.549 113.328 231.928 120.976ZM278.714 142.235C301.893 147.254 324.631 160.879 339.652 178.75C376.441 222.524 374.205 285.544 334.414 326.349C291.805 370.045 222.952 370.923 179.458 328.325C162.765 311.976 152.263 292.725 147.817 270.325C146.025 261.292 146.025 238.358 147.817 229.325C152.268 206.898 162.853 187.486 179.443 171.325C196.342 154.862 216.994 144.561 240.511 140.865C248.711 139.576 269.949 140.338 278.714 142.235ZM158.858 163.575C144.466 179.275 133.334 201.618 128.321 224.865C125.771 236.688 125.771 262.962 128.321 274.785C133.334 298.032 144.466 320.375 158.858 336.075C161.757 339.238 163.675 341.825 163.121 341.825C160.946 341.825 139.942 332.463 126.55 325.524C93.034 308.159 60.929 285.075 30.428 256.412L23.428 249.833L31.928 241.805C60.478 214.838 97.653 188.452 129.928 172.245C141.326 166.522 160.894 157.968 162.778 157.885C163.521 157.852 161.757 160.413 158.858 163.575ZM359.435 161.879C401.099 179.218 443.938 207.779 481.428 243.21L488.428 249.825L481.428 256.428C449.228 286.804 415.872 310.397 379.31 328.657C368.745 333.934 350.408 341.825 348.711 341.825C348.17 341.825 350.064 339.269 352.919 336.144C363.46 324.611 374.018 306.391 379.205 290.785C384.058 276.182 385.36 267.519 385.36 249.825C385.36 232.115 384.051 223.422 379.195 208.865C373.893 192.971 363.545 175.081 352.998 163.575C350.099 160.413 348.17 157.825 348.711 157.825C349.253 157.825 354.078 159.649 359.435 161.879ZM244.276 201.245C222.356 206.562 205.928 227.373 205.928 249.825C205.928 276.814 228.939 299.825 255.928 299.825C282.917 299.825 305.928 276.814 305.928 249.825C305.928 222.435 282.587 199.5 255.129 199.91C251.993 199.957 247.11 200.557 244.276 201.245Z" fill="#CD7CEA"/>
</svg>
