<svg width="342" height="470" viewBox="0 0 342 470" fill="none" xmlns="http://www.w3.org/2000/svg">
<path fill-rule="evenodd" clip-rule="evenodd" d="M165.877 1.49196C161.615 3.59396 126.965 38.897 112.008 56.377C59.2318 118.052 24.7908 177.734 9.10577 234.692C4.51677 251.355 1.93777 266.258 0.542773 284.163C-4.92323 354.335 31.2368 419.123 93.5598 450.82C169.82 489.605 262.629 465.849 311.357 395.071C337.128 357.639 346.406 311.043 337.979 261.377C326.931 196.265 287.956 123.718 225.805 52.578C210.659 35.241 178.943 3.28696 175.046 1.43696C170.982 -0.491036 169.886 -0.485036 165.877 1.49196ZM184.126 39.127C250.906 108.371 296.19 181.095 312.554 245.377C318.174 267.453 319.92 282.509 319.268 303.281C318.519 327.166 314.722 343.301 305.125 363.377C280.346 415.218 228.336 447.877 170.56 447.877C119.67 447.877 74.0248 423.275 45.8858 380.68C22.8168 345.76 16.0768 304.856 25.6158 257.676C39.2428 190.285 86.1228 112.51 157.93 38.166C164.458 31.407 170.148 25.877 170.573 25.877C170.999 25.877 177.097 31.839 184.126 39.127ZM48.8748 289.341C42.5068 292.11 41.2958 298.975 44.0148 316.877C46.9658 336.309 53.3388 353.035 64.1118 369.617C75.1348 386.585 102.89 410.877 111.254 410.877C118.497 410.877 123.438 405.371 122.186 398.697C121.44 394.722 119.56 392.795 111.06 387.297C103.268 382.257 88.0368 367.117 82.5908 359C72.2178 343.538 66.3548 326.639 64.4048 306.582C63.1968 294.154 62.0118 291.382 57.0138 289.293C52.9428 287.592 52.8938 287.593 48.8748 289.341Z" fill="#CD7CEA"/>
</svg>
