<svg width="513" height="423" viewBox="0 0 513 423" fill="none" xmlns="http://www.w3.org/2000/svg">
<path fill-rule="evenodd" clip-rule="evenodd" d="M183.834 2.03098C149.487 10.055 124.049 40.325 123.174 74.217C122.951 82.847 124.752 86.339 130.39 88.212C137.548 90.59 143.794 86.095 144.773 77.862C147.001 59.119 151.157 49.601 161.746 38.993C172.719 28.001 185.721 22.593 201.173 22.593C226.314 22.593 248.915 40.743 254.785 65.646C261.703 94.998 242.912 125.06 213.281 132.044C207.744 133.349 192.921 133.566 108.318 133.578C14.061 133.592 9.652 133.674 6.318 135.46C2.292 137.618 -0.274003 143.033 0.765997 147.178C1.135 148.647 2.741 151.154 4.335 152.748L7.234 155.646L111.534 155.37L215.834 155.093L223.834 152.348C236.841 147.886 245.839 142.29 255.435 132.694C265.079 123.05 270.707 113.972 275.029 101.093C277.433 93.929 277.72 91.579 277.774 78.593C277.841 62.381 276.285 55.342 269.823 42.636C260.392 24.09 243.556 10.011 222.834 3.34198C214.837 0.767984 192.46 0.0159829 183.834 2.03098ZM392.16 24.563C352.087 33.014 322.277 63.204 313.921 103.801C313.048 108.04 312.334 114.868 312.334 118.974C312.334 125.525 312.648 126.812 314.894 129.482C318.195 133.404 323.282 134.465 328.001 132.215C332.368 130.132 333.886 126.444 334.723 115.884C336.82 89.424 353.323 65.185 377.542 52.988C389.23 47.102 398.092 45.11 412.334 45.165C427.319 45.224 433.878 46.757 447.334 53.35C464.42 61.722 480.159 79.926 485.876 97.929C489.537 109.458 490.738 120.963 489.363 131.343C486.892 149.995 479.973 164.125 466.92 177.179C454.424 189.675 440.414 196.875 423.487 199.501C418.574 200.264 354.941 200.594 212.642 200.597C13.47 200.6 8.762 200.644 5.687 202.519C-0.859004 206.511 -0.859004 216.675 5.687 220.667C8.763 222.542 13.506 222.586 215.177 222.589C419.537 222.593 421.617 222.573 431.677 220.534C466.742 213.427 495.623 187.922 507.21 153.835C518.137 121.686 510.89 84.632 488.463 57.99C465.191 30.342 427.232 17.166 392.16 24.563ZM5.104 269.559C-0.724004 274.143 -0.731004 283.284 5.091 287.233C7.736 289.027 14.863 289.111 204.834 289.593L401.834 290.093L408.349 292.634C447.242 307.8 457.904 355.223 428.934 384.193C418.032 395.095 404.924 400.593 389.834 400.593C366.749 400.593 345.599 385.782 337.731 364.105C336.529 360.795 335.059 354.038 334.463 349.09C333.49 341.001 333.074 339.816 330.341 337.343C325.896 333.321 319.623 333.458 315.411 337.67C312.585 340.496 312.335 341.291 312.351 347.42C312.443 382.529 340.647 415.556 375.745 421.654C386.736 423.563 404.151 422.424 413.834 419.163C437.936 411.044 455.785 393.195 463.904 369.093C467.165 359.41 468.304 341.995 466.395 331.004C462.231 307.038 445.742 285.838 422.834 275.001C406.041 267.056 421.978 267.593 203.011 267.593C10.241 267.593 7.57 267.62 5.104 269.559Z" fill="#CD7CEA"/>
</svg>
